<svg class="svg-standalone-icon" width="100%" viewBox="65 146.32214412673315 145.0375995943556 177.35571174653373" xmlns="http://www.w3.org/2000/svg">
  <g fill-rule="evenodd">
    <path d="M141.46879,276.47031c-0.38147,-0.19281 -0.58673,-0.6116 -0.50172,-1.02833c3.4961,-17.32726 -6.67581,-29.37006 -17.44771,-42.12294l-0.01306,-0.01555c-17.47737,-20.68466 -35.54353,-42.07422 9.98055,-86.71302c0.32343,-0.32343 0.84381,-0.35867 1.21491,-0.08293c0.37111,0.27574 0.48721,0.77954 0.27367,1.18796c-10.17958,19.44901 0.09537,33.32102 10.97363,48.00574c14.523,19.60658 30.98241,41.83165 -3.36071,80.55138c-0.18245,0.20318 -0.43952,0.31513 -0.70075,0.31513c-0.14306,0 -0.28611,-0.03317 -0.41879,-0.09744zM103.86841,237.00235l-0.00186,-0.00228c-11.78219,-14.68887 -22.90717,-28.56295 -17.33016,-45.48262c0.1389,-0.42294 -0.03524,-0.88527 -0.42294,-1.10711c-0.38562,-0.21976 -0.87283,-0.14098 -1.16931,0.19074c-14.25764,16.06342 -20.93137,33.04528 -19.82634,50.47289c2.12921,33.55737 32.77784,60.34149 44.31539,70.42363c0.9993,0.87283 1.86798,1.63164 2.5874,2.28056c0.17208,0.15342 0.39599,0.23842 0.62612,0.23842c0.03317,0 0.06427,0 0.09744,-0.00622c0.26538,-0.02695 0.5038,-0.16586 0.66343,-0.38147c24.66237,-33.9687 6.49274,-56.63081 -9.53916,-76.62654zM176.78012,204.13724c0.35867,-0.25294 0.84173,-0.22599 1.16516,0.06427c27.89744,24.74405 38.0791,52.00708 28.68527,76.76565c-9.2487,24.35221 -37.37212,42.7107 -65.41884,42.7107h-0.00829c-4.57149,0 -9.01857,-0.50172 -13.22516,-1.48237c-0.3255,-0.07671 -0.58673,-0.3172 -0.68417,-0.63441c-0.10159,-0.3172 -0.02281,-0.66343 0.2011,-0.90808c4.88454,-5.38627 9.87275,-10.5652 14.70337,-15.56999l0.00435,-0.00456c28.29571,-29.33647 52.73355,-54.67306 34.2517,-99.8196c-0.16586,-0.40428 -0.0311,-0.86869 0.3255,-1.12162z" style="fill: rgb(0, 0, 0);"/>
  </g>
</svg>